# xmcd CD database file
#
# Track frame offsets:
#	150
#	12536
#	31196
#	53792
#	73495
#	92944
#	117703
#	137332
#	157081
#	175076
#	191799
#
# Disc length: 2854 seconds
#
# Revision: 0
# Processed by: cddbd v1.4PL0 Copyright (c) Steve Scherf et al.
# Submitted via: Feurio! 1.66 - http://www.feurio.com
#
DISCID=a10b240b
DTITLE=Ben Harper - Pleasure And Pain
DYEAR=1900
DGENRE=
TTITLE0=Whipping Boy
TTITLE1=Jesus On The Main Line
TTITLE2=Pay The Man
TTITLE3=Quarter Of A Man
TTITLE4=Mama's Got A Girlfriend Now
TTITLE5=Angel From Montgomery
TTITLE6=Click Yo' Heels
TTITLE7=You Should Have Come To Me
TTITLE8=Dust My Broom
TTITLE9=Sweet Home Chicago
TTITLE10=Pleasure And Pain
EXTD=
EXTT0=
EXTT1=
EXTT2=
EXTT3=
EXTT4=
EXTT5=
EXTT6=
EXTT7=
EXTT8=
EXTT9=
EXTT10=with Tom Freund
PLAYORDER=
